<svg data-v-0dd9719b="" version="1.0" xmlns="http://www.w3.org/2000/svg" xmlns:xlink="http://www.w3.org/1999/xlink" width="100%" height="100%" viewBox="0 0 340.000000 250.000000" preserveAspectRatio="xMidYMid meet" color-interpolation-filters="sRGB" style="margin: auto;"> <rect data-v-0dd9719b="" x="0" y="0" width="100%" height="100%" fill="#ffffff" fill-opacity="1" class="background"></rect> <rect data-v-0dd9719b="" x="0" y="0" width="100%" height="100%" fill="url(#watermark)" fill-opacity="1" class="watermarklayer"></rect> <g data-v-0dd9719b="" fill="#0a0619" class="icon-text-wrapper icon-svg-group iconsvg" transform="translate(48.602317810058594,96.61635780334473)"><g class="iconsvg-imagesvg" transform="translate(0,9.716941833496094)" mask="url(#89fa310d-d7c2-4ad8-b44f-f056d14a7fb0)"><g><rect fill="#0a0619" fill-opacity="0" stroke-width="2" x="0" y="0" width="60" height="37.3333997038217" class="image-rect"></rect> <svg filter="url(#colors678179361)" x="0" y="0" width="60" height="37.3333997038217" filtersec="colorsf9827422943" class="image-svg-svg primary" style="overflow: visible;"><svg xmlns="http://www.w3.org/2000/svg" xmlns:xlink="http://www.w3.org/1999/xlink" version="1.1" x="0px" y="0px" viewBox="5 22 90 56" xml:space="preserve"><path d="M81.971,50.033C81.469,41.66,74.498,35,66,35c-1.142,0-2.296,0.129-3.443,0.385C59.429,27.341,51.684,22,43,22  c-11.253,0-20.467,8.897-20.978,20.026C12.549,42.535,5,50.402,5,60c0,6.885,3.889,12.873,9.582,15.898  c0.023,0.012,0.044,0.024,0.068,0.033C17.148,77.246,19.986,78,23,78h58c7.72,0,14-6.28,14-14  C95,56.607,89.239,50.533,81.971,50.033z M81.436,75.979l2.271-2.271c0.391-0.391,0.391-1.023,0-1.414s-1.023-0.391-1.414,0  L78.586,76h-3.172l2.293-2.293c0.391-0.391,0.391-1.023,0-1.414s-1.023-0.391-1.414,0L72.586,76h-3.172l2.293-2.293  c0.391-0.391,0.391-1.023,0-1.414s-1.023-0.391-1.414,0L66.586,76h-3.172l2.293-2.293c0.391-0.391,0.391-1.023,0-1.414  s-1.023-0.391-1.414,0L60.586,76h-3.172l2.293-2.293c0.391-0.391,0.391-1.023,0-1.414s-1.023-0.391-1.414,0L54.586,76h-3.172  l2.293-2.293c0.391-0.391,0.391-1.023,0-1.414s-1.023-0.391-1.414,0L48.586,76h-3.172l2.293-2.293c0.391-0.391,0.391-1.023,0-1.414  s-1.023-0.391-1.414,0L42.586,76h-3.172l2.293-2.293c0.391-0.391,0.391-1.023,0-1.414s-1.023-0.391-1.414,0L36.586,76h-3.172  l2.293-2.293c0.391-0.391,0.391-1.023,0-1.414s-1.023-0.391-1.414,0L30.586,76h-3.172l2.293-2.293c0.391-0.391,0.391-1.023,0-1.414  s-1.023-0.391-1.414,0L24.586,76H23c-0.51,0-1.012-0.029-1.509-0.076l3.216-3.217c0.391-0.391,0.391-1.023,0-1.414  s-1.023-0.391-1.414,0l-4,4c-0.064,0.064-0.102,0.143-0.145,0.219c-0.84-0.209-1.659-0.469-2.44-0.805l3-3  c0.391-0.391,0.391-1.023,0-1.414s-1.023-0.391-1.414,0l-3.448,3.447c-0.656-0.391-1.287-0.816-1.877-1.294l3.739-3.739  c0.391-0.391,0.391-1.023,0-1.414s-1.023-0.391-1.414,0l-3.798,3.799c-0.521-0.541-1-1.121-1.442-1.73l3.655-3.654  c0.391-0.391,0.391-1.023,0-1.414s-1.023-0.391-1.414,0l-3.347,3.348c-0.382-0.701-0.697-1.441-0.973-2.199l3.734-3.734  c0.391-0.391,0.391-1.023,0-1.414s-1.023-0.391-1.414,0l-2.959,2.959c-0.192-0.925-0.29-1.883-0.314-2.857l3.687-3.688  c0.391-0.391,0.391-1.023,0-1.414s-1.023-0.391-1.414,0l-2.054,2.055C8.509,49.785,15.083,44,23,44  c4.264,0,8.276,1.658,11.297,4.669c0.195,0.194,0.451,0.292,0.706,0.292c0.256,0,0.513-0.098,0.708-0.294  c0.39-0.392,0.389-1.024-0.002-1.414c-0.601-0.599-1.248-1.132-1.914-1.634l1.912-1.912c0.391-0.391,0.391-1.023,0-1.414  s-1.023-0.391-1.414,0l-2,2c-0.065,0.065-0.103,0.144-0.146,0.221c-0.694-0.412-1.405-0.788-2.146-1.1l2.707-2.707  c0.391-0.391,0.391-1.023,0-1.414s-1.023-0.391-1.414,0l-3,3c-0.124,0.124-0.194,0.274-0.239,0.431  c-0.91-0.265-1.845-0.449-2.796-0.567l3.45-3.45c0.391-0.391,0.391-1.023,0-1.414s-1.023-0.391-1.414,0l-3.091,3.091  C25.483,31.144,33.413,24,43,24c7.79,0,14.732,4.758,17.609,11.933c-2.497,0.893-4.756,2.413-6.535,4.399  c-0.367,0.412-0.333,1.043,0.078,1.412C54.344,41.916,54.582,42,54.819,42c0.274,0,0.548-0.112,0.745-0.333  c1.57-1.753,3.564-3.091,5.769-3.87c0.153-0.054,0.276-0.148,0.382-0.258c0.156,0.035,0.318,0.046,0.482,0  C63.463,37.181,64.742,37,66,37c7.396,0,13.456,5.77,13.951,13.043c-2.766,0.201-5.364,1.198-7.568,2.922  c-0.435,0.34-0.512,0.968-0.172,1.402c0.197,0.253,0.492,0.385,0.789,0.385c0.215,0,0.432-0.069,0.615-0.213  C75.74,52.879,78.294,52,81,52c6.617,0,12,5.383,12,12C93,70.47,87.85,75.746,81.436,75.979z"></path></svg></svg> <defs><filter id="colors678179361"><feColorMatrix type="matrix" values="0 0 0 0 0.0390625  0 0 0 0 0.0234375  0 0 0 0 0.09765625  0 0 0 1 0" class="icon-fecolormatrix"></feColorMatrix></filter> <filter id="colorsf9827422943"><feColorMatrix type="matrix" values="0 0 0 0 0.99609375  0 0 0 0 0.99609375  0 0 0 0 0.99609375  0 0 0 1 0" class="icon-fecolormatrix"></feColorMatrix></filter> <filter id="colorsb8964772297"><feColorMatrix type="matrix" values="0 0 0 0 0  0 0 0 0 0  0 0 0 0 0  0 0 0 1 0" class="icon-fecolormatrix"></feColorMatrix></filter></defs></g><rect v-gra="id" width="72" height="49.33340072631836" transform="translate(-6, -6)" style="pointer-events:none;" fill="url(#1nb3zJZgS-QpJfvuTZTCS)"></rect></g> <g transform="translate(67,0)"><g data-gra="path-name" fill-rule="" class="tp-name iconsvg-namesvg" transform="translate(0,0)"><g transform="scale(1)"><g><path d="M37.92 3.6L37.92 3.6Q39.46 3.96 40.21 2.53 40.96 1.1 40.43-1.27L40.43-1.27Q39.81-4.04 37.24-6.94 34.67-9.84 30.81-12.13L30.81-12.13Q26.94-14.41 26.94-13.84L26.94-13.84Q26.94-13.58 27.77-12.61L27.77-12.61Q30.1-9.89 31.6-7.62 33.09-5.36 32.87-4.88L32.87-4.88Q32.7-4.48 31.82-4.35 30.94-4.22 26.24-3.91L26.24-3.91Q16.52-3.21 15.38-3.34 14.24-3.47 14.5-4.22L14.5-4.22Q14.59-4.44 15.69-6.15L15.69-6.15Q18.41-10.46 21.45-16.26L21.45-16.26Q22.54-18.5 23.03-19.16L23.03-19.16Q23.29-19.56 23.77-19.6L23.77-19.6Q24.65-19.73 32.56-19.73L32.56-19.73Q39.59-19.73 40.8-19.8 42.01-19.86 42.23-20.17L42.23-20.17Q42.76-20.83 38.98-23.64L38.98-23.64Q37.75-24.61 37.38-24.46 37-24.3 35.38-22.02L35.38-22.02Q35.29-21.93 35.2-21.75L35.2-21.75Q34.89-21.18 33.42-21.09 31.95-21.01 23.47-21.01L23.47-21.01Q21.36-21.01 20.17-21.01L20.17-21.01Q4-21.01 2.86-21.27L2.86-21.27Q2.55-21.31 2.59-21.09L2.59-21.09Q2.59-20.87 2.94-20.21L2.94-20.21Q3.43-19.34 3.6-19.25 3.78-19.16 5.1-19.34L5.1-19.34Q8.26-19.73 12.57-19.73L12.57-19.73 12.88-19.73Q16.48-19.73 16.92-19.42L16.92-19.42Q17.23-19.16 16.88-17.8L16.88-17.8Q16.83-17.67 16.83-17.58L16.83-17.58Q16.22-15.07 14.79-10.68 13.36-6.28 12.52-4.39L12.52-4.39Q12.13-3.38 11.6-3.19 11.07-2.99 8.61-2.9L8.61-2.9Q7.43-2.86 6.61-2.83 5.8-2.81 5.27-2.77 4.75-2.72 4.46-2.7 4.17-2.68 4.04-2.66 3.91-2.64 3.89-2.61 3.87-2.59 3.87-2.55L3.87-2.55Q3.87-2.37 4.88 0 5.89 2.37 6.02 2.5L6.02 2.5Q6.33 2.9 6.86 2.29L6.86 2.29Q7.16 1.93 7.98 1.71 8.79 1.49 11.43 1.1L11.43 1.1Q23.33-0.88 31.11-2.68L31.11-2.68Q33.57-3.25 34.32-2.59 35.07-1.93 36.17 1.76L36.17 1.76Q36.43 2.72 36.78 3.08 37.13 3.43 37.92 3.6ZM8.09-31.46L8.09-31.46Q8.26-31.42 9.4-31.6L9.4-31.6Q11.29-31.9 13.27-31.95 15.25-31.99 24.96-32.04L24.96-32.04Q37.13-32.08 37.71-32.26L37.71-32.26Q37.97-32.39 37.97-32.7L37.97-32.7Q38.01-33 36.78-34.12 35.55-35.24 34.1-36.25L34.1-36.25Q33.35-36.74 33.07-36.63 32.78-36.52 31.82-35.2L31.82-35.2Q31.64-34.98 31.38-34.58L31.38-34.58Q30.72-33.62 29.77-33.46 28.83-33.31 23.77-33.31L23.77-33.31Q21.75-33.31 20.52-33.31L20.52-33.31Q10.42-33.31 7.78-33.53L7.78-33.53Q7.12-33.57 7.12-33.44L7.12-33.44Q7.12-33.27 7.56-32.41 8-31.55 8.09-31.46ZM50.71 3.65L50.71 3.65Q51.33 3.96 52.71 3.54 54.1 3.12 54.76 2.42L54.76 2.42Q54.93 2.2 54.95 1.85 54.98 1.49 54.89-0.4L54.89-0.4Q54.76-3.52 54.73-13.07 54.71-22.63 54.84-22.94L54.84-22.94Q55.02-23.33 55.28-23.42L55.28-23.42Q55.9-23.6 62.67-23.6L62.67-23.6Q63.41-23.6 64.64-23.6L64.64-23.6Q69.21-23.6 69.92-23.4 70.62-23.2 70.36-21.97L70.36-21.97Q70.27-21.58 70.22-21.31L70.22-21.31Q69.35-16.04 68.25-15.47L68.25-15.47Q67.9-15.29 66.47-15.27 65.04-15.25 64.73-15.42L64.73-15.42Q64.38-15.6 64.4-15.8 64.42-16 64.86-16.79L64.86-16.79Q65.61-18.02 64.67-19.56 63.72-21.09 61.52-22.1L61.52-22.1Q59.55-23.03 59.55-22.5L59.55-22.5Q59.55-22.37 59.77-22.02L59.77-22.02Q61.22-19.25 61.52-17.27L61.52-17.27Q61.66-16.52 61.79-16.3L61.79-16.3Q62.4-15.64 61.22-15.34L61.22-15.34Q60.6-15.21 57.35-15.51L57.35-15.51Q56.73-15.6 56.73-15.42L56.73-15.42Q56.73-15.25 57.13-14.41L57.13-14.41Q57.48-13.67 57.68-13.54 57.88-13.4 58.36-13.54L58.36-13.54Q59.77-13.84 61.94-13.97 64.12-14.11 64.51-13.89L64.51-13.89Q65.17-13.54 65.19-11.25 65.21-8.96 64.56-8.61L64.56-8.61Q64.29-8.48 61.68-8.5 59.06-8.53 57.44-8.66L57.44-8.66Q56.38-8.75 56.27-8.64 56.16-8.53 56.6-7.65L56.6-7.65Q57.04-6.81 57.24-6.72 57.44-6.64 58.54-6.81L58.54-6.81Q64.42-7.78 65.04-6.59L65.04-6.59Q65.17-6.28 65.15-3.63 65.13-0.97 65 0.66L65 0.66Q64.86 2.15 65.3 2.5 65.74 2.86 67.24 2.55L67.24 2.55Q68.69 2.24 68.99 1.8 69.3 1.36 69.21-0.35L69.21-0.35Q68.99-5.14 69.17-5.89L69.17-5.89Q69.43-6.94 70.71-7.12L70.71-7.12Q71.15-7.16 74.09-7.21L74.09-7.21Q78.4-7.25 78.77-7.73 79.15-8.22 76.42-10.28L76.42-10.28Q75.32-11.12 74.99-11.07 74.66-11.03 73.83-10.02L73.83-10.02Q72.99-8.88 72.62-8.68 72.25-8.48 71.06-8.48L71.06-8.48Q69.65-8.48 69.39-8.85 69.13-9.23 69.13-11.21L69.13-11.21Q69.13-11.43 69.13-11.87L69.13-11.87Q69.08-13.4 69.48-13.67L69.48-13.67Q69.87-14.02 72.73-14.02L72.73-14.02Q73.48-14.02 73.87-14.02L73.87-14.02Q78.18-14.06 78.44-14.46L78.44-14.46Q78.66-14.77 77.43-15.91L77.43-15.91Q75.85-17.36 75.28-17.47 74.71-17.58 73.92-16.66L73.92-16.66Q73.3-15.82 72.93-15.58 72.55-15.34 71.89-15.29L71.89-15.29Q70.71-15.25 70.73-15.75 70.75-16.26 71.89-17.53L71.89-17.53Q72.38-18.11 73.3-19.2L73.3-19.2Q74.58-20.7 75.1-20.87L75.1-20.87Q76.2-21.18 74-22.1L74-22.1Q72.16-22.9 72.16-23.2L72.16-23.2Q72.16-23.6 76.25-23.6L76.25-23.6Q76.77-23.6 77.65-23.64L77.65-23.64Q79.76-23.73 80.09-22.83 80.42-21.93 80.38-16.35L80.38-16.35Q80.38-13.97 80.38-12.48L80.38-12.48Q80.38-11.21 80.38-9.1L80.38-9.1Q80.42-2.77 80.05-1.76 79.67-0.75 77.48-0.97L77.48-0.97Q76.73-1.01 76.29-1.05L76.29-1.05Q73.74-1.23 73.7-1.1L73.7-1.1Q73.56-0.88 73.76-0.73 73.96-0.57 74.62-0.44L74.62-0.44Q76.51-0.04 77.41 0.79 78.31 1.63 78.62 3.21L78.62 3.21Q78.66 3.69 78.9 3.76 79.15 3.82 80.07 3.65L80.07 3.65Q81.87 3.34 82.81 2.68 83.76 2.02 84.16 0.88L84.16 0.88Q84.38 0.31 84.42-10.9L84.42-10.9Q84.46-21.67 84.64-22.41L84.64-22.41Q84.73-22.81 85.17-22.98L85.17-22.98Q85.25-23.03 85.34-23.07L85.34-23.07Q86.22-23.64 86.22-23.86 86.22-24.08 84.75-25.36 83.28-26.63 82.53-26.98L82.53-26.98Q82.13-27.2 81.91-27.14 81.69-27.07 81.34-26.63L81.34-26.63Q80.2-25.36 79.94-25.18L79.94-25.18Q79.37-24.83 76.33-24.83L76.33-24.83Q75.15-24.83 74.79-24.83 74.44-24.83 73.78-24.83L73.78-24.83Q70.27-24.83 69.74-25.14L69.74-25.14Q69.3-25.49 69.3-26.89L69.3-26.89Q69.3-27.25 69.3-27.42L69.3-27.42Q69.26-29.36 69.35-29.49L69.35-29.49Q69.57-30.19 71.5-30.28L71.5-30.28Q71.89-30.28 78.44-30.32L78.44-30.32Q85.08-30.37 86.2-30.43 87.32-30.5 87.45-30.85L87.45-30.85Q87.54-31.2 86.04-32.67 84.55-34.15 83.28-34.89L83.28-34.89Q82.88-35.11 82.62-34.96 82.35-34.8 81.69-33.88L81.69-33.88Q80.82-32.83 80.55-32.43L80.55-32.43Q80.07-31.82 79.37-31.71 78.66-31.6 74.79-31.6L74.79-31.6Q70.36-31.6 69.83-31.86L69.83-31.86Q69.35-32.48 69.35-33.53L69.35-33.53Q69.35-35.24 70.05-35.64L70.05-35.64Q71.1-36.25 68.69-37L68.69-37Q67.72-37.35 66.14-37.71L66.14-37.71Q65.04-37.97 64.95-37.79L64.95-37.79Q64.91-37.71 65-36.87L65-36.87Q65.52-31.99 64.34-31.68L64.34-31.68Q63.76-31.51 56.27-31.62 48.78-31.73 47.68-31.9L47.68-31.9Q47.33-31.99 47.37-31.68L47.37-31.68Q47.42-31.42 47.77-30.67L47.77-30.67Q48.16-29.93 48.34-29.84L48.34-29.84Q48.52-29.79 50.27-30.01L50.27-30.01Q52.78-30.32 58.93-30.32L58.93-30.32Q59.55-30.32 60.6-30.32L60.6-30.32Q64.29-30.32 64.82-30.01L64.82-30.01Q65.3-29.71 65.26-28.3L65.26-28.3Q65.26-28.26 65.26-28.13L65.26-28.13Q65.26-27.69 65.26-27.42L65.26-27.42Q65.26-27.25 65.26-26.94L65.26-26.94Q65.26-25.44 64.86-25.18L64.86-25.18Q64.29-24.83 60.86-24.83L60.86-24.83Q60.25-24.83 59.9-24.83L59.9-24.83Q56.03-24.83 55.31-24.94 54.58-25.05 52.51-25.97L52.51-25.97Q50.36-26.89 50.23-26.89 50.1-26.89 50.36-24.17L50.36-24.17Q50.63-21.58 50.58-12.63 50.54-3.69 50.27 0.83L50.27 0.83Q50.14 2.68 50.21 3.08 50.27 3.47 50.71 3.65ZM97.29 3.69L97.29 3.69Q97.91 3.91 99.07 3.56 100.24 3.21 100.94 2.55L100.94 2.55Q101.25 2.29 101.29 1.93 101.34 1.58 101.25-0.35L101.25-0.35Q101.12-3.6 101.1-13.23 101.07-22.85 101.21-23.16L101.21-23.16Q101.43-23.69 103.91-23.82 106.39-23.95 106.83-23.47L106.83-23.47Q107.4-22.76 107.01-15.38L107.01-15.38Q106.88-13.36 106.92-12.94 106.96-12.52 107.31-12.35L107.31-12.35Q107.84-12.13 109.05-12.46 110.26-12.79 110.74-13.32L110.74-13.32Q111.01-13.58 110.96-14.94L110.96-14.94Q110.92-16.39 111.29-16.7 111.67-17.01 113.51-17.01L113.51-17.01Q115.44-17.01 115.8-16.59 116.15-16.17 115.97-14.02L115.97-14.02Q115.93-12.96 116.37-12.72 116.81-12.48 118.04-12.83L118.04-12.83Q119.31-13.18 119.69-13.6 120.06-14.02 120.06-15.12L120.06-15.12Q120.01-16.48 120.39-16.74 120.76-17.01 122.7-17.01L122.7-17.01Q124.67-17.01 125.22-16.57 125.77-16.13 125.46-14.77L125.46-14.77Q125.33-14.06 124.87-13.95 124.41-13.84 122.65-14.11L122.65-14.11Q121.11-14.33 120.92-14.26 120.72-14.19 120.76-13.4L120.76-13.4Q120.85-11.6 120.74-11.05 120.63-10.5 120.15-10.28L120.15-10.28Q119.71-10.11 112.26-10.2 104.81-10.28 103.58-10.5L103.58-10.5Q103.23-10.55 103.21-10.37 103.18-10.2 103.54-9.54L103.54-9.54Q103.97-8.57 104.17-8.48 104.37-8.39 105.47-8.57L105.47-8.57Q107.97-8.96 108.68-8.75L108.68-8.75Q109.12-8.66 109.16-8.48L109.16-8.48Q109.16-8.39 109.07-8.35L109.07-8.35Q108.76-8.26 109.42-7.56L109.42-7.56Q110.43-6.42 111.18-5.01 111.93-3.6 112.1-2.64L112.1-2.64Q112.24-1.71 113.42-1.6 114.61-1.49 115.18-2.33L115.18-2.33Q116.1-3.6 115.33-5.03 114.57-6.46 112.46-7.51L112.46-7.51Q110.79-8.35 110.74-8.61L110.74-8.61Q110.74-8.92 113.95-9.01L113.95-9.01Q114.61-9.01 115.71-9.01L115.71-9.01Q116.24-9.01 117.11-9.01L117.11-9.01Q119.93-9.05 120.41-8.68 120.89-8.31 120.85-6.46L120.85-6.46Q120.85-6.33 120.85-6.06L120.85-6.06Q120.85-5.32 120.85-4.88L120.85-4.88Q120.85-4.61 120.85-4.17L120.85-4.17Q120.85-1.45 120.39-1.01 119.93-0.57 117.11-0.75L117.11-0.75Q116.76-0.79 116.59-0.79L116.59-0.79Q114.87-0.88 114.83-0.79L114.83-0.79Q114.74-0.66 114.74-0.59 114.74-0.53 114.87-0.44 115-0.35 115.22-0.29 115.44-0.22 115.84-0.13L115.84-0.13Q117.6 0.26 118.3 0.99 119 1.71 119.31 3.38L119.31 3.38Q119.53 3.69 120.37 3.6 121.2 3.52 122.32 3.03 123.44 2.55 123.79 2.07L123.79 2.07Q124.37 1.27 124.45 0.46 124.54-0.35 124.63-4.09L124.63-4.09Q124.63-4.57 124.63-5.36L124.63-5.36Q124.63-8.09 125-8.55 125.38-9.01 127.35-9.01L127.35-9.01Q127.44-9.01 127.71-9.01L127.71-9.01Q128.45-9.01 128.89-9.01L128.89-9.01Q132.63-9.05 132.89-9.58 133.15-10.11 130.43-12.26L130.43-12.26Q129.77-12.79 129.46-12.88 129.16-12.96 128.89-12.77 128.63-12.57 128.06-11.78L128.06-11.78Q127.13-10.55 126.56-10.28 125.99-10.02 125.29-10.37L125.29-10.37Q124.28-10.81 124.74-11.91 125.2-13.01 126.47-13.23L126.47-13.23Q128.58-13.58 129.24-14.24L129.24-14.24Q129.33-14.41 129.33-20.08L129.33-20.08Q129.38-25.66 129.55-26.15L129.55-26.15Q129.64-26.37 130.25-26.76L130.25-26.76Q130.56-26.98 130.65-27.16 130.74-27.33 130.52-27.69 130.3-28.04 129.79-28.52 129.29-29 128.28-29.93L128.28-29.93Q127.35-30.72 127.84-30.94L127.84-30.94Q128.23-31.11 130.12-31.16L130.12-31.16Q132.54-31.2 132.63-31.9 132.71-32.61 130.47-34.37L130.47-34.37Q129.86-34.85 129.64-34.91 129.42-34.98 129.18-34.8 128.94-34.63 128.36-33.84L128.36-33.84Q127.57-32.83 127.29-32.67 127-32.52 125.86-32.48L125.86-32.48Q121.07-32.21 120.5-32.52L120.5-32.52Q119.88-32.87 119.93-33.97 119.97-35.07 120.59-35.64L120.59-35.64Q121.29-36.3 120.19-36.83L120.19-36.83Q119.4-37.18 117.03-37.79L117.03-37.79Q116.06-38.06 115.91-38.01 115.75-37.97 115.84-37.4L115.84-37.4Q116.1-35.68 115.99-34.21 115.88-32.74 115.49-32.52L115.49-32.52Q115.18-32.34 111.36-32.39 107.53-32.43 105.25-32.61L105.25-32.61Q104.59-32.65 104.59-32.52L104.59-32.52Q104.59-32.34 105.03-31.49 105.47-30.63 105.56-30.59L105.56-30.59Q105.73-30.5 106.81-30.59 107.89-30.67 108.33-30.81L108.33-30.81Q110.13-31.2 112.79-31.14 115.44-31.07 115.8-30.63L115.8-30.63Q116.67-29.53 115.97-28.89 115.27-28.26 113.29-28.26L113.29-28.26Q111.58-28.26 111.12-28.37 110.65-28.48 108.85-29.27L108.85-29.27Q107.01-30.06 106.96-29.84L106.96-29.84Q106.92-29.79 106.96-29.53L106.96-29.53Q107.4-26.1 106.57-26.1L106.57-26.1Q106.08-26.1 105.12-27.03L105.12-27.03Q104.24-27.91 104.08-27.91 103.93-27.91 103.45-27.16L103.45-27.16Q102.66-26.02 102.28-25.69 101.91-25.36 101.56-25.44L101.56-25.44Q100.9-25.62 100.96-30.32 101.03-35.02 101.73-35.64L101.73-35.64Q102.35-36.25 101.25-36.78L101.25-36.78Q100.37-37.13 97.87-37.79L97.87-37.79Q96.81-38.06 96.7-37.97 96.59-37.88 96.72-36.78L96.72-36.78Q97.03-34.23 97.08-30.1 97.12-25.97 96.9-25.62L96.9-25.62Q96.64-25.14 95.84-25.05 95.05-24.96 92.59-25.22L92.59-25.22Q92.07-25.31 92.07-25.14L92.07-25.14Q92.11-24.96 92.46-24.17L92.46-24.17Q92.81-23.47 92.99-23.33 93.16-23.2 93.47-23.33L93.47-23.33Q94.7-23.82 95.76-23.71 96.81-23.6 96.99-22.98 97.16-22.37 97.1-13.1 97.03-3.82 96.81-0.04L96.81-0.04Q96.64 2.5 96.7 3.01 96.77 3.52 97.29 3.69ZM115.58-18.5L115.58-18.5Q115.31-18.28 113.51-18.28 111.71-18.28 111.31-18.57 110.92-18.85 110.87-20.13L110.87-20.13Q110.87-21.49 111.25-21.75 111.62-22.02 113.51-22.02L113.51-22.02Q115.49-22.02 115.71-21.8L115.71-21.8Q116.19-21.36 116.13-20.08 116.06-18.81 115.58-18.5ZM125.02-18.5L125.02-18.5Q124.72-18.28 122.76-18.26 120.81-18.24 120.5-18.46L120.5-18.46Q119.93-18.81 119.93-20.21 119.93-21.62 120.54-21.93L120.54-21.93Q120.89-22.15 122.92-22.08 124.94-22.02 125.16-21.8L125.16-21.8Q125.64-21.36 125.57-20.08 125.51-18.81 125.02-18.5ZM115.71-23.6L115.71-23.6Q115.53-23.42 113.73-23.31 111.93-23.2 111.62-23.33L111.62-23.33Q110.87-23.64 110.87-25.05 110.87-26.46 111.62-26.81L111.62-26.81Q111.97-26.98 113.51-26.98 115.05-26.98 115.4-26.81L115.4-26.81Q116.02-26.5 116.13-25.29 116.24-24.08 115.71-23.6ZM125.16-23.6L125.16-23.6Q124.94-23.38 122.87-23.31 120.81-23.25 120.5-23.47L120.5-23.47Q119.88-23.86 119.93-25.18 119.97-26.5 120.59-26.81L120.59-26.81Q120.94-26.98 122.74-26.98 124.54-26.98 124.85-26.81L124.85-26.81Q125.46-26.5 125.57-25.29 125.68-24.08 125.16-23.6ZM125.16-28.52L125.16-28.52Q124.85-28.3 122.83-28.23 120.81-28.17 120.5-28.39L120.5-28.39Q119.93-28.74 119.97-29.73 120.01-30.72 120.59-31.03L120.59-31.03Q121.2-31.33 124.01-31.16 126.83-30.98 126.83-30.63L126.83-30.63Q126.83-30.45 126.12-29.6 125.42-28.74 125.16-28.52ZM125.24-33.31L125.24-33.31Q126.17-33 126.89-33.68 127.62-34.37 127.35-35.33L127.35-35.33Q126.87-37.18 123.27-37.53L123.27-37.53Q122.08-37.62 121.99-37.42 121.9-37.22 122.78-36.34L122.78-36.34Q124.19-34.85 124.41-33.97L124.41-33.97Q124.54-33.62 125.24-33.31ZM142.73 3.38L142.73 3.38Q143.44 3.96 144.71 3.6 145.99 3.25 146.69 2.55L146.69 2.55Q146.87 2.33 146.91 2.04 146.95 1.76 146.87 0.4L146.87 0.4Q146.65-4.35 146.62-10.24 146.6-16.13 146.82-16.52L146.82-16.52Q147.26-17.14 148.4-15.47L148.4-15.47Q149.19-14.24 149.68-12.74L149.68-12.74Q149.94-11.69 151.26-11.69L151.26-11.69Q152.53-11.69 151.57-10.55L151.57-10.55Q150.91-9.8 151-9.58L151-9.58Q151.13-9.18 154.12-11.47L154.12-11.47Q155.39-12.48 155.65-11.43L155.65-11.43Q155.83-10.9 155.76-6.72 155.7-2.55 155.48 0.97L155.48 0.97Q155.39 2.99 155.72 3.43 156.05 3.87 157.46 3.6L157.46 3.6Q158.64 3.43 159.08 3.03 159.52 2.64 159.57 1.85L159.57 1.85Q159.61 0.66 160.22 0.46 160.84 0.26 164.31 0.26L164.31 0.26Q164.44 0.26 164.66 0.26L164.66 0.26Q167.83 0.26 168.35 0.44 168.88 0.62 168.88 1.71L168.88 1.71Q168.88 1.85 168.88 1.89L168.88 1.89Q168.88 3.21 169.5 3.43 170.11 3.65 171.69 2.86L171.69 2.86Q172.79 2.33 172.92 1.87 173.06 1.41 172.97-1.1L172.97-1.1Q172.62-9.84 173.14-10.85L173.14-10.85Q173.45-11.47 174.38-10.68L174.38-10.68Q174.81-10.24 174.95-10.26 175.08-10.28 175.25-10.77L175.25-10.77Q175.56-11.69 176.29-12.55 177.01-13.4 177.8-13.8L177.8-13.8Q178.46-14.11 178.37-14.37 178.29-14.63 177.36-15.21L177.36-15.21Q172.18-18.37 168.66-23.25L168.66-23.25Q167.17-25.36 166.84-26.37 166.51-27.38 167.26-27.73L167.26-27.73Q168.05-28.04 167.74-28.26L167.74-28.26Q167.39-28.48 164.58-29.22L164.58-29.22Q161.5-30.01 161.28-29.84L161.28-29.84Q161.19-29.79 161.15-29.4L161.15-29.4Q160.53-23.38 155.3-15.42L155.3-15.42Q153.59-12.88 153.11-12.88L153.11-12.88Q152.84-12.92 152.71-13.54L152.71-13.54Q152.36-15.34 151.13-16.61L151.13-16.61Q150.38-17.4 150.45-17.75 150.51-18.11 151.66-19.12L151.66-19.12Q153.5-20.79 153.85-20.79L153.85-20.79Q155.57-20.79 152.45-22.81L152.45-22.81Q151.26-23.6 151.04-23.51L151.04-23.51Q150.91-23.42 150.56-22.37L150.56-22.37Q149.81-20.08 149.28-19.27 148.75-18.46 148.05-18.59L148.05-18.59Q147.44-18.72 147.28-19.23 147.13-19.73 147.52-20.35L147.52-20.35Q149.33-23.16 150.34-25.22L150.34-25.22Q151.17-26.81 151.5-27.25 151.83-27.69 152.4-27.86L152.4-27.86Q152.84-27.99 153.02-28.17 153.19-28.34 153.08-28.67 152.97-29 152.6-29.47 152.23-29.93 151.52-30.67L151.52-30.67Q150.47-31.77 150.14-31.79 149.81-31.82 148.89-30.81L148.89-30.81Q147.44-29.22 146.82-30.01L146.82-30.01Q146.65-30.23 146.65-32.56L146.65-32.56Q146.65-34.5 146.76-34.94 146.87-35.38 147.39-35.86L147.39-35.86Q148.01-36.43 147-36.87L147-36.87Q146.21-37.22 143.83-37.84L143.83-37.84Q142.69-38.1 142.58-38.01 142.47-37.92 142.6-36.69L142.6-36.69Q142.82-34.54 142.91-33.49 143-32.43 142.89-31.4 142.78-30.37 142.56-30.04 142.34-29.71 141.7-29.49 141.06-29.27 140.34-29.33 139.61-29.4 138.21-29.62L138.21-29.62Q137.55-29.71 137.48-29.58 137.42-29.44 137.77-28.74L137.77-28.74Q138.25-27.82 138.47-27.73 138.69-27.64 139.79-27.82L139.79-27.82Q142.47-28.17 144.58-28.17 146.69-28.17 146.87-27.82L146.87-27.82Q147.48-26.67 144.18-20.85 140.89-15.03 137.72-11.69L137.72-11.69Q136.8-10.63 137.2-10.46L137.2-10.46Q137.59-10.24 140.45-12.61L140.45-12.61Q141.64-13.62 142.03-13.8 142.43-13.97 142.69-13.67L142.69-13.67Q142.87-13.45 142.87-8.66 142.87-3.87 142.69-0.66L142.69-0.66Q142.51 2.33 142.51 2.75 142.51 3.16 142.73 3.38ZM168.49-1.23L168.49-1.23Q168.13-0.97 164.27-0.97 160.4-0.97 160.09-1.23L160.09-1.23Q159.74-1.45 159.65-2.22 159.57-2.99 159.57-6.59L159.57-6.59Q159.57-7.16 159.57-8.13L159.57-8.13Q159.52-11.16 159.94-11.67 160.36-12.17 162.86-12.13L162.86-12.13Q163.78-12.13 164.31-12.13L164.31-12.13Q167.7-12.13 168-12.04L168-12.04Q168.88-11.82 168.97-10.59L168.97-10.59Q169.01-10.33 169.01-6.59L169.01-6.59Q169.01-2.99 168.93-2.22 168.84-1.45 168.49-1.23ZM168.53-13.62L168.53-13.62Q168.13-13.4 164.44-13.38 160.75-13.36 160-13.54L160-13.54Q158.38-13.97 158.27-14.52 158.16-15.07 159.3-16.44L159.3-16.44Q162.6-20.35 164.58-24.35L164.58-24.35Q165.23-25.75 165.63-25.69 166.03-25.62 166.55-23.95L166.55-23.95Q167.74-20.3 169.58-16.92L169.58-16.92Q170.77-14.63 168.53-13.62ZM153.06-25.49L153.06-25.49Q153.41-25.09 154.8-26.19 156.18-27.29 157.9-29.29 159.61-31.29 160.84-33.27L160.84-33.27Q161.81-34.89 162.51-35.11L162.51-35.11Q163.61-35.42 162.25-36.04L162.25-36.04Q161.89-36.21 161.32-36.43L161.32-36.43Q161.1-36.52 160.73-36.67 160.36-36.83 159.87-37.07 159.39-37.31 159.13-37.4L159.13-37.4Q157.9-37.97 157.72-37.95 157.54-37.92 157.46-37.13L157.46-37.13Q157.15-34.8 155.87-31.46 154.6-28.13 153.19-26.15L153.19-26.15Q152.89-25.66 153.06-25.49ZM173.58-26.02L173.58-26.02Q175.47-25.31 175.91-27.11L175.91-27.11Q176.4-29.18 174.73-31.82L174.73-31.82Q174.2-32.65 173.54-33.35L173.54-33.35Q172.09-34.85 169.5-36.39 166.9-37.92 166.6-37.49L166.6-37.49Q166.46-37.35 167.3-36.25L167.3-36.25Q170.82-31.77 172.31-27.55L172.31-27.55Q172.62-26.67 172.79-26.46 172.97-26.24 173.58-26.02Z" transform="translate(-2.5854287147521973, 38.03314208984375)"></path></g> <!----> <!----> <!----> <!----> <!----> <!----> <!----></g></g> <g data-gra="path-slogan" fill-rule="" class="tp-slogan iconsvg-slogansvg" fill="#0a0619" transform="translate(44.60768508911133,47.81478500366211)"><!----> <!----> <g transform="scale(1, 1)"><g transform="scale(1)"><path d="M7.83-8.58L4.59-3.47L4.59 0L3.42 0L3.42-3.47L0.19-8.58L1.55-8.58L3.98-4.45L6.47-8.58L7.83-8.58ZM14.53-3.19L14.53-8.58L15.70-8.58L15.70-3.05Q15.56 0.05 12.19 0.14L12.19 0.14Q9.05 0.05 8.91-2.86L8.91-2.86L8.91-8.58L10.08-8.58L10.08-3.19Q10.13-0.84 12.23-0.80L12.23-0.80Q14.53-0.84 14.53-3.19L14.53-3.19ZM18.89-8.58L23.20-1.64L23.20-8.58L24.33-8.58L24.33 0L23.02 0L18.66-6.94L18.61-6.94L18.61 0L17.48 0L17.48-8.58L18.89-8.58ZM27.52-8.58L31.83-1.64L31.83-8.58L32.95-8.58L32.95 0L31.64 0L27.28-6.94L27.23-6.94L27.23 0L26.11 0L26.11-8.58L27.52-8.58ZM40.41 0L39.56-2.48L36.09-2.48L35.20 0L34.03 0L37.27-8.58L38.58-8.58L41.67 0L40.41 0ZM37.83-7.31L36.47-3.52L39.14-3.52L37.88-7.31L37.83-7.31ZM44.11-8.58L48.42-1.64L48.42-8.58L49.55-8.58L49.55 0L48.23 0L43.88-6.94L43.83-6.94L43.83 0L42.70 0L42.70-8.58L44.11-8.58ZM57.89-7.64L55.83-7.64L55.83-4.97L57.89-4.97Q59.72-4.92 59.67-6.38L59.67-6.38Q59.67-7.64 57.89-7.64L57.89-7.64ZM58.36 0L54.66 0L54.66-8.58L58.45-8.58Q60.75-8.48 60.84-6.42L60.84-6.42Q60.84-5.16 59.72-4.64L59.72-4.64Q61.31-4.08 61.31-2.53L61.31-2.53Q61.17-0.09 58.36 0L58.36 0ZM58.08-3.98L55.83-3.98L55.83-0.98L58.31-0.98Q60.09-1.03 60.14-2.53L60.14-2.53Q60.14-3.98 58.08-3.98L58.08-3.98ZM69.42-4.27L69.42-4.27Q69.23-7.64 66.42-7.83L66.42-7.83Q63.56-7.69 63.42-4.27L63.42-4.27Q63.56-0.94 66.42-0.80L66.42-0.80Q69.23-0.98 69.42-4.27ZM70.59-4.27L70.59-4.27Q70.31 0 66.42 0.14L66.42 0.14Q62.48 0 62.20-4.27L62.20-4.27Q62.44-8.72 66.42-8.81L66.42-8.81Q70.31-8.67 70.59-4.27ZM78.89-8.58L75.66-3.47L75.66 0L74.48 0L74.48-3.47L71.25-8.58L72.61-8.58L75.05-4.45L77.53-8.58L78.89-8.58ZM85.59-3.19L85.59-8.58L86.77-8.58L86.77-3.05Q86.63 0.05 83.25 0.14L83.25 0.14Q80.11 0.05 79.97-2.86L79.97-2.86L79.97-8.58L81.14-8.58L81.14-3.19Q81.19-0.84 83.30-0.80L83.30-0.80Q85.59-0.84 85.59-3.19L85.59-3.19Z" transform="translate(-0.1875, 8.8125)"></path></g></g></g></g></g><defs v-gra="od"></defs><defs v-gra="id"><filter id="99d78ba2-c7de-49f7-8473-5947f8753023" filterUnits="userSpaceOnUse"><feColorMatrix type="matrix" values="0 0 0 0 0.99609375  0 0 0 0 0.99609375  0 0 0 0 0.99609375  0 0 0 1 0"></feColorMatrix></filter><linearGradient x1="0" y1="1" x2="0" y2="0" id="1nb3zJZgS-QpJfvuTZTCS"><stop offset="0%" stop-color="#fd9248"></stop><stop offset="50%" stop-color="#fa1768"></stop><stop offset="100%" stop-color="#f001ff"></stop></linearGradient><filter id="42443b3f1de60f6b6fd3b6a9844b4764" filterUnits="objectBoundingBox"><feColorMatrix type="matrix" values="0 0 0 0 0.99609375  0 0 0 0 0.99609375  0 0 0 0 0.99609375  0 0 0 1 0"></feColorMatrix></filter></defs><mask v-gra="im" id="89fa310d-d7c2-4ad8-b44f-f056d14a7fb0"><g class="iconsvg-imagesvg" filter="url(#99d78ba2-c7de-49f7-8473-5947f8753023)"><g><rect fill="#0a0619" fill-opacity="0" stroke-width="2" x="0" y="0" width="60" height="37.3333997038217" class="image-rect"></rect> <svg x="0" y="0" width="60" height="37.3333997038217" filtersec="colorsf9827422943" class="image-svg-svg primary" style="overflow: visible;"><svg xmlns="http://www.w3.org/2000/svg" xmlns:xlink="http://www.w3.org/1999/xlink" version="1.1" x="0px" y="0px" viewBox="5 22 90 56" xml:space="preserve"><path d="M81.971,50.033C81.469,41.66,74.498,35,66,35c-1.142,0-2.296,0.129-3.443,0.385C59.429,27.341,51.684,22,43,22  c-11.253,0-20.467,8.897-20.978,20.026C12.549,42.535,5,50.402,5,60c0,6.885,3.889,12.873,9.582,15.898  c0.023,0.012,0.044,0.024,0.068,0.033C17.148,77.246,19.986,78,23,78h58c7.72,0,14-6.28,14-14  C95,56.607,89.239,50.533,81.971,50.033z M81.436,75.979l2.271-2.271c0.391-0.391,0.391-1.023,0-1.414s-1.023-0.391-1.414,0  L78.586,76h-3.172l2.293-2.293c0.391-0.391,0.391-1.023,0-1.414s-1.023-0.391-1.414,0L72.586,76h-3.172l2.293-2.293  c0.391-0.391,0.391-1.023,0-1.414s-1.023-0.391-1.414,0L66.586,76h-3.172l2.293-2.293c0.391-0.391,0.391-1.023,0-1.414  s-1.023-0.391-1.414,0L60.586,76h-3.172l2.293-2.293c0.391-0.391,0.391-1.023,0-1.414s-1.023-0.391-1.414,0L54.586,76h-3.172  l2.293-2.293c0.391-0.391,0.391-1.023,0-1.414s-1.023-0.391-1.414,0L48.586,76h-3.172l2.293-2.293c0.391-0.391,0.391-1.023,0-1.414  s-1.023-0.391-1.414,0L42.586,76h-3.172l2.293-2.293c0.391-0.391,0.391-1.023,0-1.414s-1.023-0.391-1.414,0L36.586,76h-3.172  l2.293-2.293c0.391-0.391,0.391-1.023,0-1.414s-1.023-0.391-1.414,0L30.586,76h-3.172l2.293-2.293c0.391-0.391,0.391-1.023,0-1.414  s-1.023-0.391-1.414,0L24.586,76H23c-0.51,0-1.012-0.029-1.509-0.076l3.216-3.217c0.391-0.391,0.391-1.023,0-1.414  s-1.023-0.391-1.414,0l-4,4c-0.064,0.064-0.102,0.143-0.145,0.219c-0.84-0.209-1.659-0.469-2.44-0.805l3-3  c0.391-0.391,0.391-1.023,0-1.414s-1.023-0.391-1.414,0l-3.448,3.447c-0.656-0.391-1.287-0.816-1.877-1.294l3.739-3.739  c0.391-0.391,0.391-1.023,0-1.414s-1.023-0.391-1.414,0l-3.798,3.799c-0.521-0.541-1-1.121-1.442-1.73l3.655-3.654  c0.391-0.391,0.391-1.023,0-1.414s-1.023-0.391-1.414,0l-3.347,3.348c-0.382-0.701-0.697-1.441-0.973-2.199l3.734-3.734  c0.391-0.391,0.391-1.023,0-1.414s-1.023-0.391-1.414,0l-2.959,2.959c-0.192-0.925-0.29-1.883-0.314-2.857l3.687-3.688  c0.391-0.391,0.391-1.023,0-1.414s-1.023-0.391-1.414,0l-2.054,2.055C8.509,49.785,15.083,44,23,44  c4.264,0,8.276,1.658,11.297,4.669c0.195,0.194,0.451,0.292,0.706,0.292c0.256,0,0.513-0.098,0.708-0.294  c0.39-0.392,0.389-1.024-0.002-1.414c-0.601-0.599-1.248-1.132-1.914-1.634l1.912-1.912c0.391-0.391,0.391-1.023,0-1.414  s-1.023-0.391-1.414,0l-2,2c-0.065,0.065-0.103,0.144-0.146,0.221c-0.694-0.412-1.405-0.788-2.146-1.1l2.707-2.707  c0.391-0.391,0.391-1.023,0-1.414s-1.023-0.391-1.414,0l-3,3c-0.124,0.124-0.194,0.274-0.239,0.431  c-0.91-0.265-1.845-0.449-2.796-0.567l3.45-3.45c0.391-0.391,0.391-1.023,0-1.414s-1.023-0.391-1.414,0l-3.091,3.091  C25.483,31.144,33.413,24,43,24c7.79,0,14.732,4.758,17.609,11.933c-2.497,0.893-4.756,2.413-6.535,4.399  c-0.367,0.412-0.333,1.043,0.078,1.412C54.344,41.916,54.582,42,54.819,42c0.274,0,0.548-0.112,0.745-0.333  c1.57-1.753,3.564-3.091,5.769-3.87c0.153-0.054,0.276-0.148,0.382-0.258c0.156,0.035,0.318,0.046,0.482,0  C63.463,37.181,64.742,37,66,37c7.396,0,13.456,5.77,13.951,13.043c-2.766,0.201-5.364,1.198-7.568,2.922  c-0.435,0.34-0.512,0.968-0.172,1.402c0.197,0.253,0.492,0.385,0.789,0.385c0.215,0,0.432-0.069,0.615-0.213  C75.74,52.879,78.294,52,81,52c6.617,0,12,5.383,12,12C93,70.47,87.85,75.746,81.436,75.979z"></path></svg></svg> <defs><filter id="colors678179361"><feColorMatrix type="matrix" values="0 0 0 0 0.0390625  0 0 0 0 0.0234375  0 0 0 0 0.09765625  0 0 0 1 0" class="icon-fecolormatrix"></feColorMatrix></filter> <filter id="colorsf9827422943"><feColorMatrix type="matrix" values="0 0 0 0 0.99609375  0 0 0 0 0.99609375  0 0 0 0 0.99609375  0 0 0 1 0" class="icon-fecolormatrix"></feColorMatrix></filter> <filter id="colorsb8964772297"><feColorMatrix type="matrix" values="0 0 0 0 0  0 0 0 0 0  0 0 0 0 0  0 0 0 1 0" class="icon-fecolormatrix"></feColorMatrix></filter></defs></g></g></mask></svg>